<svg preserveAspectRatio="none" overflow="visible" style="display: block;" width="7" height="7" viewBox="0 0 7 7" fill="none" xmlns="http://www.w3.org/2000/svg">
<g id="shield-plus.3 9" clip-path="url(#clip0_0_26)">
<path id="Vector" fill-rule="evenodd" clip-rule="evenodd" d="M3.41658 0.317459C3.47191 0.309464 3.52812 0.309464 3.58345 0.317459C3.6472 0.326673 3.70653 0.34909 3.75366 0.366887L3.76626 0.371647L5.36824 0.972341C5.54843 1.03961 5.70666 1.09869 5.82852 1.20609C5.93512 1.30004 6.01726 1.41854 6.0678 1.55135C6.12555 1.70317 6.12532 1.87208 6.12506 2.06441L6.125 3.49997C6.125 4.3244 5.67662 5.01174 5.19196 5.51667C4.70403 6.02499 4.14575 6.384 3.85055 6.55623L3.8386 6.56323C3.78472 6.59488 3.71481 6.63591 3.62232 6.65578C3.54664 6.67199 3.45336 6.67199 3.3777 6.65578C3.28519 6.63594 3.21527 6.59488 3.1614 6.56323L3.14945 6.55623C2.85426 6.384 2.29599 6.02499 1.80806 5.51667C1.32338 5.01174 0.875006 4.3244 0.875006 3.49997L0.874968 2.06442C0.874688 1.87208 0.874443 1.70317 0.932213 1.55135C0.98275 1.41854 1.06487 1.30004 1.17148 1.20609C1.29335 1.09869 1.45159 1.03961 1.63178 0.972341L3.23374 0.371647L3.24637 0.366887C3.29347 0.34909 3.35282 0.326673 3.41658 0.317459ZM3.5 2.1875C3.66109 2.1875 3.79167 2.31809 3.79167 2.47917V3.0625H4.375C4.53609 3.0625 4.66667 3.19308 4.66667 3.35417C4.66667 3.51525 4.53609 3.64583 4.375 3.64583H3.79167V4.22917C3.79167 4.39025 3.66109 4.52083 3.5 4.52083C3.33891 4.52083 3.20833 4.39025 3.20833 4.22917V3.64583H2.625C2.46392 3.64583 2.33333 3.51525 2.33333 3.35417C2.33333 3.19308 2.46392 3.0625 2.625 3.0625H3.20833V2.47917C3.20833 2.31809 3.33891 2.1875 3.5 2.1875Z" fill="white"/>
</g>
<defs>
<clipPath id="clip0_0_26">
<rect width="7" height="7" fill="white"/>
</clipPath>
</defs>
</svg>
